<svg width="20" height="19" viewBox="0 0 20 19" fill="none" xmlns="http://www.w3.org/2000/svg">
<path d="M9.82736 18.1666L16.6435 11.0816C18.8035 8.83639 19.6324 6.25879 18.9133 4.01359C18.3365 2.21011 16.849 0.916388 15.0324 0.64211C13.1362 0.355635 11.2728 1.20761 9.82503 3.00148C8.37958 1.21017 6.51614 0.355825 4.61768 0.64211C2.79856 0.916393 1.31108 2.21011 0.736766 4.01359C0.0199214 6.26118 0.84655 8.83644 3.0066 11.0816L9.82736 18.1666ZM1.84579 4.39198C2.2825 3.02549 3.41033 2.04718 4.78802 1.83861C4.97012 1.81186 5.14995 1.7973 5.33206 1.7973C6.80782 1.7973 8.24627 2.70023 9.34849 4.34105L9.8272 5.05232L10.3036 4.34122C11.5413 2.49895 13.2038 1.58873 14.8642 1.83882C16.2444 2.04758 17.3722 3.0257 17.8065 4.39219C18.381 6.1884 17.6547 8.31462 15.817 10.2223L9.82736 16.453L3.83315 10.2245C1.99774 8.31419 1.2716 6.18796 1.84612 4.39176L1.84579 4.39198Z" fill="#2D4153"/>
</svg>
