<svg width="83" height="34" viewBox="0 0 83 34" fill="none" xmlns="http://www.w3.org/2000/svg">
<g clip-path="url(#clip0_1_289)">
<path d="M7.90832 15.4506L7.87758 30.318C7.87758 32.2694 8.27717 33.1058 9.13342 33.6076C9.13342 33.7191 9.13342 33.9979 9.13342 33.9979H2.1121C2.1121 33.9979 2.1121 33.7191 2.1121 33.6076C2.96836 33.1058 3.36795 32.2694 3.36795 30.318V20.0848C3.36795 17.074 2.22627 15.4506 0 15.4506V15.0046H8.3562C4.93117 14.8373 0.228336 12.279 0.228336 8.54343C0.228336 4.75207 3.59189 0 9.2432 0C11.6978 0 16.4665 1.2888 18.5215 2.73844L17.6082 9.43122H17.2086C16.3062 5.31176 10.3498 -0.769852 6.52513 0.958562C3.91903 2.57332 3.65337 6.36897 4.16712 9.37976C4.56671 11.7772 6.41974 14.9381 11.0435 14.9381L18.8948 15.0046V15.4506H7.90832Z" fill="#2D4153"/>
<path d="M35.8775 15.4507C35.8775 15.4507 39.4167 15.4507 39.9305 15.4507C39.1313 8.70436 32.4525 6.41839 27.6003 6.64141C21.3211 6.97594 12.3589 11.1576 12.6443 20.8033C12.8727 30.0029 20.6559 33.998 28.5334 33.998C36.6393 33.998 42.0952 31.1887 44.8419 24.4209C46.651 19.9648 44.282 20.0162 43.7661 19.5723L42.2797 20.3122C46.2755 20.7239 45.0658 19.8554 44.3281 24.5324C43.3335 30.8349 35.1266 32.7092 30.2174 32.9322C24.3948 33.1552 20.0082 30.2259 17.8961 24.3716C16.9256 21.6953 16.7544 18.4058 17.4965 15.4507H35.8775ZM25.0316 7.31262C30.6258 6.25327 35.0783 10.1561 35.8204 15.0068H17.6106C18.6382 11.2133 21.1498 8.03744 25.0316 7.31262Z" fill="#2D4153"/>
<path d="M82.9995 33.4981C82.9995 33.6096 82.9995 33.8884 82.9995 33.8884H75.9782C75.9782 33.8884 75.9782 33.6096 75.9782 33.4981C76.8345 32.9963 77.1199 32.0485 76.9486 30.2086C76.7203 28.3686 75.9211 18.946 75.6357 16.0467C75.179 11.8651 73.5236 7.12588 69.0711 8.07372C63.8193 9.18882 63.1343 17.8309 63.0773 23.6852V30.2086C63.0773 32.16 63.4768 32.9963 64.3331 33.4981C64.3331 33.6096 64.3331 33.8884 64.3331 33.8884H57.3118C57.3118 33.8884 57.3118 33.6096 57.3118 33.4981C58.168 32.9963 58.5676 32.16 58.5676 30.2086V16.0467C58.5676 11.8093 56.5697 7.23739 52.1171 8.07372C45.7237 9.24458 45.4383 20.8974 45.4383 25.6366V30.2086C45.4383 32.16 45.895 32.9963 46.7513 33.4981C46.7513 33.6096 46.7513 33.8884 46.7513 33.8884H39.6729C39.6729 33.8884 39.6729 33.6096 39.6729 33.4981C40.5291 32.9963 40.9858 32.16 40.9858 30.2086V11.3654C40.9858 9.41399 40.8145 8.85643 39.6729 8.68917C39.6729 8.57766 39.6729 8.29888 39.6729 8.29888L45.0387 7.07227H45.4383V19.4499C46.0663 13.5399 47.7788 7.07227 54.6288 7.07227C59.0243 7.07227 62.7918 10.7521 63.0202 16.8852L63.0773 17.4985C63.7623 12.0902 65.8744 7.07227 71.6398 7.07227C76.1495 7.07227 79.3462 10.3618 80.0312 16.8852C80.6591 22.2935 81.1729 28.1478 81.4012 30.2107C81.6317 32.2158 82.1455 32.9963 82.9995 33.4981Z" fill="#2D4153"/>
</g>
<defs>
<clipPath id="clip0_1_289">
<rect width="83" height="34" fill="white"/>
</clipPath>
</defs>
</svg>
