<svg width="20" height="20" viewBox="0 0 20 20" fill="none" xmlns="http://www.w3.org/2000/svg">
<g clip-path="url(#clip0_1_269)">
<path d="M18.3337 18.75C18.3337 16.4294 17.4557 14.2038 15.8929 12.5628C14.3301 10.9219 12.2105 10 10.0003 10C7.79019 10 5.67057 10.9219 4.10777 12.5628C2.54497 14.2038 1.66699 16.4294 1.66699 18.75H2.91699C2.91699 16.7775 3.66327 14.8857 4.99165 13.4909C6.32004 12.0961 8.12171 11.3125 10.0003 11.3125C11.8789 11.3125 13.6806 12.0961 15.009 13.4909C16.3374 14.8857 17.0837 16.7775 17.0837 18.75H18.3337Z" fill="#2D4153"/>
<path d="M13.5663 4.99992C13.5663 6.96973 11.9695 8.56659 9.99967 8.56659C8.02986 8.56659 6.43301 6.96973 6.43301 4.99992C6.43301 3.0301 8.02986 1.43325 9.99967 1.43325C11.9695 1.43325 13.5663 3.0301 13.5663 4.99992Z" stroke="#2D4153" stroke-width="1.2"/>
</g>
<defs>
<clipPath id="clip0_1_269">
<rect width="20" height="20" fill="white"/>
</clipPath>
</defs>
</svg>
